/* XPM */
static char *compile_xpm[] = {
/* columns rows colors chars-per-pixel */
"16 15 16 1",
"  c black",
". c #800000",
"X c #008000",
"o c #808000",
"O c navy",
"+ c #800080",
"@ c #008080",
"# c None",
"$ c #808080",
"% c red",
"& c green",
"* c yellow",
"= c blue",
"- c magenta",
"; c cyan",
": c gray100",
/* pixels */
"################",
"################",
"#.##############",
"...#############",
"#...#.##########",
"##....$#########",
"###...$#########",
"##....$#########",
"###$$$@@@@#@####",
"######@####@####",
"######@#@@#@####",
"######@##@#@####",
"######@@@@#@@@##",
"################",
"################"
};
