/* XPM */
static char *DebugDialog_xpm[] = {
/* columns rows colors chars-per-pixel */
"16 16 126 2",
"   c black",
".  c #000101",
"X  c #020203",
"o  c #0C1012",
"O  c #141A1F",
"+  c gray12",
"@  c #0E1C23",
"#  c #11262F",
"$  c #162E38",
"%  c #182E3B",
"&  c #19323E",
"*  c #1B313D",
"=  c #1A323D",
"-  c #202020",
";  c gray15",
":  c #2B2E2F",
">  c #343434",
",  c #3A3A3A",
"<  c #1F3845",
"1  c #213747",
"2  c #203A46",
"3  c #203A47",
"4  c #233C49",
"5  c #233C4A",
"6  c #244049",
"7  c #3D4347",
"8  c #3C586E",
"9  c #444444",
"0  c #464646",
"q  c #464C4E",
"w  c #4A5258",
"e  c #4C5459",
"r  c #46617B",
"t  c #5B6467",
"y  c #556470",
"u  c #546A76",
"i  c #5A6771",
"p  c #596B7A",
"a  c #5A6C7A",
"s  c #686868",
"d  c #6B6E6F",
"f  c #6B6E71",
"g  c #67787C",
"h  c #687071",
"j  c #6D7B7E",
"k  c gray44",
"l  c #797979",
"z  c #5A7A99",
"x  c #617784",
"c  c #65788C",
"v  c #657990",
"b  c #6D7E94",
"n  c #6C8A9E",
"m  c #778C96",
"M  c #778D9D",
"N  c #7C8793",
"B  c #7E8D9A",
"V  c #7C939C",
"C  c #6D87A3",
"Z  c #7385A0",
"A  c #7689A5",
"S  c #778BB1",
"D  c #7E95AB",
"F  c #81878A",
"G  c #8C9596",
"H  c #8696A3",
"J  c #889DB4",
"K  c #909DA4",
"L  c #8AA0A7",
"P  c #8CA0BC",
"I  c #94ABAF",
"U  c #91A9BB",
"Y  c #99AFB6",
"T  c #A4A4A4",
"R  c #A3AAAE",
"E  c gray67",
"W  c #A6AEB5",
"Q  c #B4B4B4",
"!  c #96A7C9",
"~  c #9DB1CC",
"^  c #A9BCC1",
"/  c #A8BCCB",
"(  c #A9B9DB",
")  c #B5BCC5",
"_  c #ADC0D8",
"`  c #B8C0C6",
"'  c #B3C6D6",
"]  c #B3C3DE",
"[  c #B6C0DE",
"{  c #B6C8D4",
"}  c #C5C5C5",
"|  c #C8CFD1",
" . c #C2D1DE",
".. c #C2D1DF",
"X. c #D9DBDC",
"o. c #C3D3E0",
"O. c #C4D1E4",
"+. c #C6D3E6",
"@. c #CAD8E3",
"#. c #CCD9E3",
"$. c #CCDCE5",
"%. c #CCD9E8",
"&. c #CEDAE9",
"*. c #D1DCE3",
"=. c #D2DEE8",
"-. c #D5E0EC",
";. c #DAE4EF",
":. c #DAE6ED",
">. c #D7E0F1",
",. c #E4E4E4",
"<. c gray90",
"1. c #E3E7E9",
"2. c gray91",
"3. c #EAEAEA",
"4. c gray93",
"5. c #EEEEEE",
"6. c #E3EBF2",
"7. c #E8F1F3",
"8. c #E8F0F4",
"9. c #E8F1F5",
"0. c #ECF1F3",
"q. c #F2F8F6",
"w. c gray98",
"e. c #FBFBFB",
"r. c gray99",
"t. c None",
/* pixels */
"t.t.t.  X X X X   t.t.t.t.t.t.t.",
"t.    ; } 5.4.E 0     t.t.t.t.t.",
"t.  h g j G 1.e.3.k   t.t.t.t.t.",
"  f %.>.( Z a W r.2.0   t.t.t.t.",
"  | 6.:.+.( ! b R r.T   t.t.t.t.",
"  q.9.-.+.] U S a X.<.  t.t.t.t.",
"  0.9.%.$.#.{ ~ v F <.  t.t.t.t.",
"  ` =.:.8. .J V M t Q   t.t.t.t.",
"  f *.o.@.D Y I m e 9   t.t.t.t.",
"2 o N / ..P ^ L u q     t.t.t.t.",
"5 H : e ) A c y 7           t.t.",
"5 _ ' i O           - -       t.",
"2 n z C r K < t.t.    s >       ",
"* 6 8 x B % & t.t.t.    l ,     ",
"t.@ 1 $ & # t.t.t.t.      s +   ",
"t.t.t.t.t.t.t.t.t.t.t.          "
};
