/* XPM */
static char *G_xpm[] = {
/* columns rows colors chars-per-pixel */
"16 16 2 1",
"  c #00AF00",
". c None",
/* pixels */
"................",
"................",
"................",
".....     ......",
"....   .   .....",
"....   .   .....",
"....   .........",
"....   .........",
"....       .....",
"....   .   .....",
"....   .   .....",
".....      .....",
"................",
"................",
"................",
"................"
};
