/* XPM */
static char *NextRender_xpm[] = {
/* columns rows colors chars-per-pixel */
"16 16 31 1",
"  c black",
". c #070A0C",
"X c #080C0F",
"o c #090C10",
"O c #090D11",
"+ c #0B0F13",
"@ c #0D1217",
"# c #0D1318",
"$ c #0F151A",
"% c #0F151B",
"& c #12191F",
"* c #151D24",
"= c #161E26",
"- c #19232B",
"; c #1A252E",
": c #1C2832",
"> c #1E2A34",
", c #212E39",
"< c #5F6060",
"1 c #4B6983",
"2 c #9B9D9E",
"3 c #9C9D9E",
"4 c #9E9E9F",
"5 c #A0A0A0",
"6 c #EFF0F2",
"7 c gray97",
"8 c #F8F8F8",
"9 c #FBFCFC",
"0 c #FCFCFD",
"q c gray100",
"w c None",
/* pixels */
"wwwwwwwwwwwwwwww",
"                ",
"w w w w w w w w ",
"                ",
"111%&58q7<#>1111",
"111.5qq 883;1111",
"111o8q8  88@1111",
"111 qqq   8X1111",
"111o8qq  96%1111",
"111=5q8 7q3:1111",
"111;o58q73=,1111",
"                ",
"w w w w w w w w ",
"                ",
"wwwwwwwwwwwwwwww",
"wwwwwwwwwwwwwwww"
};
