/* XPM */
static char *Normalize_xpm[] = {
/* columns rows colors chars-per-pixel */
"16 16 13 1",
"  c black",
". c #314E6C",
"X c gray85",
"o c gray86",
"O c gainsboro",
"+ c #DDDDDD",
"@ c gray87",
"# c #EAEAEA",
"$ c gray92",
"% c #ECECEC",
"& c #EEEEEE",
"* c gray100",
"= c None",
/* pixels */
"================",
"                ",
" ***$ ***$ ***$ ",
" *$$X *$$X *$$X ",
" *$$+ *$$+ *$$+ ",
" $+++ $+++ $+++ ",
"                ",
"================",
".==.========.==.",
".=..========..=.",
"....========....",
".=..========..=.",
".==.========.==.",
"================",
"================",
"================"
};
