/* XPM */
static char *PostImage_xpm[] = {
/* columns rows colors chars-per-pixel */
"16 16 6 1",
"  c black",
". c #516F2A",
"X c #4E4E4E",
"o c #91B16E",
"O c gray57",
"+ c None",
/* pixels */
"++++............",
"++++.oooooooooo.",
"++++.oooooooooo.",
"++++.oooooooooo.",
"++++.oooooooooo.",
"++++.oooooooooo.",
"XXXX.oooooooooo.",
"XOOO.oooooooooo.",
"XOOO.oooooooooo.",
"XOOO.oooooooooo.",
"XOOO.oooooooooo.",
"XOOO............",
"XOOOOOOOOOOX++++",
"XOOOOOOOOOOX++++",
"XOOOOOOOOOOX++++",
"XXXXXXXXXXXX++++"
};
