/* XPM */
static char *selection_xpm[] = {
/* columns rows colors chars-per-pixel */
"15 16 5 1",
"  c black",
". c None",
"X c #808080",
"o c #9D9DA1",
"O c gray100",
/* pixels */
"...o..o..o.....",
"....o.o.o......",
"...............",
"..ooo. .ooo....",
"......  .......",
"....o.   ......",
"...o.. O  .....",
"...... OO  ....",
"...... OOO  ...",
"...... OOOOX ..",
"...... OOO    .",
"...... X   ....",
"......  .  ....",
"...... ...  ...",
"..........  ...",
"...........  .."
};
