/* XPM */
static char *GLIcon16_xpm[] = {
/* columns rows colors chars-per-pixel */
"16 16 141 2",
"   c black",
".  c #2A2A2A",
"X  c #2F373C",
"o  c #2C3C3F",
"O  c #35342D",
"+  c #303C3D",
"@  c #3C3C3C",
"#  c #36463F",
"$  c #12474E",
"%  c #1E4665",
"&  c #175176",
"*  c #2B4658",
"=  c #324959",
"-  c #375B5F",
";  c #395153",
":  c #284C66",
">  c #245473",
",  c #315268",
"<  c #246168",
"1  c #24656D",
"2  c #32737B",
"3  c #484848",
"4  c gray29",
"5  c #455447",
"6  c #435249",
"7  c #475149",
"8  c #47564B",
"9  c #4C544D",
"0  c #4F5450",
"q  c #51494E",
"w  c #514B4F",
"e  c #524D50",
"r  c #554C54",
"t  c #574C57",
"y  c #574E56",
"u  c #5A4D56",
"i  c #505050",
"p  c #515351",
"a  c gray32",
"s  c #555555",
"d  c #565656",
"f  c #565756",
"g  c gray35",
"h  c gray37",
"j  c #4E6152",
"k  c #4C6450",
"l  c #57625A",
"z  c #576D5E",
"x  c #53705B",
"c  c #567A5F",
"v  c #497070",
"b  c #605B5F",
"n  c #655D63",
"m  c #626262",
"M  c gray40",
"N  c #6B656A",
"B  c #6E6F70",
"V  c #667469",
"C  c #67766B",
"Z  c #6E706F",
"A  c gray44",
"S  c #757C7A",
"D  c #7B7E7C",
"F  c #7C7E7E",
"G  c #176092",
"H  c #1B72AE",
"J  c #1D78B7",
"K  c #1F7FC3",
"L  c #3FA352",
"P  c #34BC4B",
"I  c #3BBB52",
"U  c #3DBB56",
"Y  c #4F8F5D",
"T  c #4D9D63",
"R  c #558962",
"E  c #5C8768",
"W  c #598E65",
"Q  c #538D7F",
"!  c #40B559",
"~  c #45B058",
"^  c #42B95D",
"/  c #46BA64",
"(  c #49B765",
")  c #48BB67",
"_  c #57A26B",
"`  c #5CBF7A",
"'  c #628269",
"]  c #6A8975",
"[  c #689872",
"{  c #65A275",
"}  c #72A07C",
"|  c #51C26E",
" . c #52DA7C",
".. c #41FC69",
"X. c #56E67A",
"o. c #188599",
"O. c #198C97",
"+. c #1D9BAA",
"@. c #1FA1AF",
"#. c #1CA0B0",
"$. c #1CA3B3",
"%. c #18ABBE",
"&. c #1FACBD",
"*. c #5A888E",
"=. c #57A79A",
"-. c #759E85",
";. c #6EBC80",
":. c #7FB68E",
">. c #7EB098",
",. c #7ECF99",
"<. c #7DD99B",
"1. c #6BEC8A",
"2. c #73E98F",
"3. c gray51",
"4. c #888888",
"5. c gray54",
"6. c #8E8E8E",
"7. c #92908D",
"8. c #83A78B",
"9. c #87A48D",
"0. c #84AA8D",
"q. c #89A58E",
"w. c #88B59C",
"e. c #91BB9D",
"r. c #81C291",
"t. c #8DD49D",
"y. c #98C9A3",
"u. c #91D4A6",
"i. c #95E1A7",
"p. c #A7D3AB",
"a. c #ADD0AA",
"s. c #A7D8B6",
"d. c #B2D9AE",
"f. c #A5FABA",
"g. c #B5E4BD",
"h. c #B9F3C7",
"j. c #C2EDCB",
"k. c #C5F7D2",
"l. c #C9FCD6",
"z. c #D9FCDA",
"x. c None",
/* pixels */
"x.x.x.x.x.x.x.x.x.x.x.x.x.x.x.x.",
"x.x.x.x.x.x.x.x.x.x.x.x.x.x.x.x.",
"x.x.x.x.x.x.x.# G J H , x.x.x.x.",
"x.x.x.x.x.x.2 @.* = : K % x.x.x.",
"x.x.x.x.x.x.&., @ d h X o.; x.x.",
"x.x.x.x.x.*.$.i m 3 F 3.+.1 x.x.",
"x.x.x.x.x.v O.i B 0 S 7.@.< x.x.",
"x.x.9.a.d.g.e.6 4.8.p.Q %.+ x.x.",
"x.q.l.s.] 0.j.-.> w.z.=.$ 3 x.x.",
"x.y.h.j 0 5 8 # & >.l.k . A x.x.",
"x.t.u.0 C r.u.0.O } f.x g x.x.x.",
"x.` 2.h ] C ,.<.w { 1.z A x.x.x.",
"x.] X.` E R  .` u _ ..U L ~ [ x.",
"x.x.c ~ / ) T 8 b W ^ U I P Y x.",
"x.x.x.m d w w M 6.5.N t t t f x.",
"x.x.x.x.x.x.x.x.x.x.x.x.x.x.x.x."
};
